<svg width="182" height="117" viewBox="0 0 182 117" fill="none" xmlns="http://www.w3.org/2000/svg">
<g clip-path="url(#clip0_30_109)">
<path d="M91 -7.95547e-06C105.34 -6.7018e-06 117 11.6624 117 25.9996C117 47.5008 134.496 65.0007 156 65.0007C170.338 65.0007 182 76.6599 182 91.0004C182 105.341 170.338 117 156 117C141.663 117 130.001 105.338 130.001 91.0004C130.001 69.4992 112.504 51.9993 91 51.9993C69.4958 51.9993 51.9991 69.496 51.9991 91.0003C51.9991 105.341 40.3368 117 25.9995 117C11.6623 117 1.01956e-06 105.338 2.27296e-06 91.0003C3.52636e-06 76.6631 11.6623 65.0007 25.9995 65.0007C47.5006 65.0007 65.0005 47.5039 65.0005 25.9996C65.0005 11.6592 76.6628 -9.20887e-06 91 -7.95547e-06Z" fill="url(#paint0_linear_30_109)"/>
</g>
<defs>
<linearGradient id="paint0_linear_30_109" x1="91" y1="117" x2="91" y2="-7.95547e-06" gradientUnits="userSpaceOnUse">
<stop stop-color="#1B688C"/>
<stop offset="1" stop-color="#21224D"/>
</linearGradient>
<clipPath id="clip0_30_109">
<rect width="182" height="117" fill="white" transform="translate(182 117) rotate(-180)"/>
</clipPath>
</defs>
</svg>
