<svg width="272" height="60" viewBox="0 0 272 60" fill="none" xmlns="http://www.w3.org/2000/svg">
<g clip-path="url(#clip0_30_117)">
<path d="M263.23 8.77752C274.923 20.4809 274.923 39.5191 263.23 51.2225C251.536 62.9258 232.514 62.9258 220.821 51.2225C203.284 33.6711 174.741 33.6711 157.205 51.2225C145.511 62.9258 126.489 62.9258 114.795 51.2225C97.2587 33.6711 68.7161 33.6711 51.1795 51.2225C39.4859 62.9258 20.4637 62.9258 8.77016 51.2225C-2.92339 39.5191 -2.92339 20.4809 8.77016 8.77752C20.4637 -2.92584 39.4859 -2.92584 51.1795 8.77752C68.7161 26.3289 97.2587 26.3289 114.795 8.77752C126.489 -2.92584 145.511 -2.92584 157.205 8.77752C174.741 26.3289 203.284 26.3289 220.821 8.77752C232.514 -2.92584 251.536 -2.92584 263.23 8.77752Z" fill="url(#paint0_linear_30_117)"/>
</g>
<defs>
<linearGradient id="paint0_linear_30_117" x1="61.7813" y1="104.281" x2="210.34" y2="-44.1535" gradientUnits="userSpaceOnUse">
<stop stop-color="#1B688C"/>
<stop offset="1" stop-color="#21224D"/>
</linearGradient>
<clipPath id="clip0_30_117">
<rect width="272" height="60" fill="white"/>
</clipPath>
</defs>
</svg>
