<?xml version="1.0" encoding="UTF-8"?>
<svg id="Layer_2" data-name="Layer 2" xmlns="http://www.w3.org/2000/svg" viewBox="0 0 165.46 257.39">
  <defs>
    <style>
      .cls-1 {
        fill: #19264f;
      }

      .cls-1, .cls-2 {
        stroke-width: 0px;
      }

      .cls-2 {
        fill: #246f8e;
      }
    </style>
  </defs>
  <g id="Layer_1-2" data-name="Layer 1">
    <g>
      <path class="cls-1" d="m91.92,36.77c0,30.41-24.74,55.15-55.15,55.15C16.49,91.92,0,108.42,0,128.69s16.49,36.77,36.77,36.77c30.41,0,55.15,24.74,55.15,55.15,0,20.27,16.49,36.77,36.77,36.77s36.77-16.5,36.77-36.77-16.49-36.77-36.77-36.77c-30.41,0-55.15-24.74-55.15-55.15s24.74-55.15,55.15-55.15c20.27,0,36.77-16.5,36.77-36.77S148.97,0,128.69,0s-36.77,16.5-36.77,36.77Z"/>
      <circle class="cls-2" cx="128.69" cy="128.69" r="36.77"/>
    </g>
  </g>
</svg>