<?xml version="1.0" encoding="utf-8"?>
<!-- Generator: Adobe Illustrator 28.0.0, SVG Export Plug-In . SVG Version: 6.00 Build 0)  -->
<svg version="1.1" id="Grupo_5" xmlns="http://www.w3.org/2000/svg" xmlns:xlink="http://www.w3.org/1999/xlink" x="0px" y="0px"
	 viewBox="0 0 84.4 84.9" style="enable-background:new 0 0 84.4 84.9;" xml:space="preserve">
<style type="text/css">
	.st0{fill:#FFFFFF;}
</style>
<g>
	<path id="Caminho_15" class="st0" d="M70.3,19.4H68c-0.8,0-1.3,0-2,0.3c-1.5,0.5-2.8,1-4.3,1.8c-0.5-0.5-1-1.8-1.5-1.8h-8.8v56.7
		H64V65.5c0.8,0.3,1.5,0.5,2.3,0.8c1,0.5,2.3,0.8,3.3,0.8h3.5c3.3-0.3,6-2,7.8-4.8l0.3-2.3V27.5C81.1,22.2,75.6,19.4,70.3,19.4
		 M68.3,57.9c0,1-1,2-2.3,1.8c-1,0.3-2-0.5-2-1.8c0,0,0,0,0-0.3v-29c0-1,0.5-2,1.3-2h1.5c0.8,0.3,1.3,0.8,1.3,1.8L68.3,57.9z"/>
	<path id="Caminho_16" class="st0" d="M36,8.6v12.1c-0.8,0-1.5-0.3-2.3-0.8c-1.3-0.5-2.5-0.8-3.8-0.8h-3.3c-3.8,0-7.8,2.8-7.8,6.5
		v33.8c0,4,5.3,7.3,9.8,7.3H32c0.5,0,1.3,0,1.8-0.3c1.5-0.5,2.8-1,4-1.8c0.8,0.5,0.8,1.5,1.5,1.5h9.1V8.6H36z M36,57.2
		c0,1.3-0.8,2.3-2,2.5c-1.3,0-2.3-0.8-2.5-2c0-0.3,0-0.3,0-0.5v-28c0-1.3,0.5-2.5,1.8-2.5h1.3c1,0,1.3,1.5,1.3,2.5L36,57.2z"/>
	<rect id="Retângulo_3335" x="3.8" y="8.6" class="st0" width="12.8" height="8.6"/>
	<rect id="Retângulo_3336" x="3.8" y="19.4" class="st0" width="12.8" height="47.1"/>
</g>
</svg>
