<?xml version="1.0" encoding="UTF-8"?>
<svg id="Layer_1" data-name="Layer 1" xmlns="http://www.w3.org/2000/svg" xmlns:xlink="http://www.w3.org/1999/xlink" viewBox="0 0 359.67 360.52">
  <defs>
    <style>
      .cls-1 {
        fill: url(#linear-gradient);
        filter: url(#drop-shadow-1);
      }

      .cls-1, .cls-2 {
        stroke-width: 0px;
      }

      .cls-2 {
        fill: url(#linear-gradient-2);
      }

      .cls-3 {
        filter: url(#drop-shadow-2);
      }
    </style>
    <linearGradient id="linear-gradient" x1="0" y1="180.26" x2="359.67" y2="180.26" gradientUnits="userSpaceOnUse">
      <stop offset="0" stop-color="#216d8f"/>
      <stop offset="1" stop-color="#1b2050"/>
    </linearGradient>
    <filter id="drop-shadow-1" filterUnits="userSpaceOnUse">
      <feOffset dx="1" dy="1"/>
      <feGaussianBlur result="blur" stdDeviation="2"/>
      <feFlood flood-color="#fff" flood-opacity=".2"/>
      <feComposite in2="blur" operator="in"/>
      <feComposite in="SourceGraphic"/>
    </filter>
    <filter id="drop-shadow-2" filterUnits="userSpaceOnUse">
      <feOffset dx="1" dy="1"/>
      <feGaussianBlur result="blur-2" stdDeviation="2"/>
      <feFlood flood-color="#fff" flood-opacity=".2"/>
      <feComposite in2="blur-2" operator="in"/>
      <feComposite in="SourceGraphic"/>
    </filter>
    <linearGradient id="linear-gradient-2" x1="108.47" y1="180.26" x2="251.21" y2="180.26" xlink:href="#linear-gradient"/>
  </defs>
  <path class="cls-1" d="m312.86,133.42h-.26c-48.13.26-87.38-38.46-87.79-86.58v-.26c-.15-25.76-21.07-46.58-46.84-46.58s-46.84,20.96-46.84,46.84v.41c.41,47.04-37.28,85.53-84.3,86.17h-.41c-25.71.23-46.43,21.13-46.43,46.84s20.72,46.6,46.43,46.84h.41c47.01.64,84.71,39.13,84.3,86.17v.41c0,25.88,20.96,46.84,46.84,46.84s46.69-20.81,46.84-46.58v-.26c.41-48.13,39.66-86.85,87.79-86.58h.26c25.85,0,46.81-20.99,46.81-46.84s-20.96-46.84-46.81-46.84Zm-46.84,47.1v-.26c-.41,48.07-39.57,86.76-87.64,86.58l-.09.09-.09-.09h-.23c-47.01-.64-84.71-39.13-84.3-86.17v-.82c-.41-47.04,37.28-85.53,84.3-86.17h.23l.09-.09.09.09c48.07-.18,87.23,38.51,87.64,86.58v-.26l.26.26-.26.26Z"/>
  <g class="cls-3">
    <path class="cls-2" d="m179.84,172.4c-4.36,0-7.84,3.52-7.84,7.88s3.48,7.84,7.84,7.84,7.84-3.52,7.84-7.84-3.52-7.88-7.84-7.88Zm0-63.53c-39.43,0-71.37,31.97-71.37,71.41s31.94,71.37,71.37,71.37,71.37-31.97,71.37-71.37-31.97-71.41-71.37-71.41Zm-62.81,71.41c0-25.65,15.38-47.73,37.39-57.47-10.57,12.99-17.43,33.9-17.43,57.47s6.86,44.44,17.43,57.43c-22.01-9.74-37.39-31.82-37.39-57.43Zm62.81,62.81c-7.65,0-16.02-5.23-22.96-16.78-6.82-11.36-11.29-27.62-11.29-46.03s4.47-34.7,11.29-46.06c6.93-11.55,15.3-16.74,22.96-16.74s16.02,5.19,22.92,16.74c6.86,11.36,11.33,27.62,11.33,46.06s-4.47,34.66-11.33,46.03c-6.9,11.56-15.3,16.78-22.92,16.78Zm25.42-5.38c10.57-12.99,17.39-33.87,17.39-57.43s-6.82-44.47-17.39-57.47c22.01,9.74,37.39,31.82,37.39,57.47s-15.38,47.69-37.39,57.43Zm-25.42-65.31c-4.36,0-7.84,3.52-7.84,7.88s3.48,7.84,7.84,7.84,7.84-3.52,7.84-7.84-3.52-7.88-7.84-7.88Zm0,0c-4.36,0-7.84,3.52-7.84,7.88s3.48,7.84,7.84,7.84,7.84-3.52,7.84-7.84-3.52-7.88-7.84-7.88Z"/>
  </g>
</svg>