<?xml version="1.0" encoding="utf-8"?>
<!-- Generator: Adobe Illustrator 28.0.0, SVG Export Plug-In . SVG Version: 6.00 Build 0)  -->
<svg version="1.1" id="Layer_1" xmlns="http://www.w3.org/2000/svg" xmlns:xlink="http://www.w3.org/1999/xlink" x="0px" y="0px"
	 viewBox="0 0 48 48" style="enable-background:new 0 0 48 48;" xml:space="preserve">
<path d="M17.1,24c0-3.8,3.1-6.9,6.9-6.9c3.8,0,6.9,3.1,6.9,6.9c0,3.8-3.1,6.9-6.9,6.9C20.2,30.9,17.1,27.8,17.1,24z M24,18.6
	c-3,0-5.4,2.4-5.4,5.4c0,3,2.4,5.4,5.4,5.5c3,0,5.4-2.4,5.4-5.4C29.4,21.1,27,18.6,24,18.6z"/>
<path d="M34.2,15.4c-1.2-2.5-0.3-5.3,1.9-6.6c2.1-1.2,4.8-0.7,6.4,1.2c1.5,1.9,1.4,4.7-0.4,6.5c-1.6,1.6-4.6,2.2-7,0.1
	c-1.1,0.8-2.2,1.6-3.3,2.5c-0.3,0.2-0.5,0.4-0.8,0.6c-0.4,0.3-0.8,0.2-1.1-0.1c-0.3-0.3-0.2-0.8,0.2-1.1c1.3-1,2.6-1.9,3.9-2.9
	C34.1,15.5,34.1,15.4,34.2,15.4z M35.1,13c0,1.9,1.5,3.4,3.4,3.4c1.9,0,3.4-1.5,3.4-3.4c0-1.9-1.6-3.4-3.5-3.4
	C36.7,9.6,35.1,11.1,35.1,13z"/>
<path d="M13.8,32.6c1.3,2.6,0.3,5.4-1.9,6.6C9.8,40.5,7,39.9,5.5,38c-1.5-2-1.3-4.7,0.4-6.5c1.6-1.7,4.6-2.2,7-0.1
	c1.1-0.8,2.1-1.6,3.2-2.4c0.3-0.2,0.6-0.4,0.9-0.6c0.4-0.3,0.8-0.2,1.1,0.1c0.3,0.3,0.2,0.8-0.2,1.1c-1.2,0.9-2.5,1.9-3.7,2.8
	C14,32.5,13.9,32.5,13.8,32.6z M12.9,35c0-1.9-1.6-3.4-3.5-3.4C7.5,31.6,6,33.1,6,35c0,1.9,1.6,3.5,3.5,3.4
	C11.4,38.4,12.9,36.8,12.9,35z"/>
<path d="M13.8,15.4c1.3,1,2.6,2,3.9,3c0.2,0.2,0.4,0.4,0.4,0.6c0,0.2-0.1,0.5-0.3,0.7c-0.3,0.3-0.6,0.2-0.9-0.1
	c-1-0.8-2.1-1.6-3.1-2.3c-0.3-0.2-0.6-0.4-0.9-0.7c-1.2,1.1-2.6,1.6-4.2,1.3c-1.2-0.2-2.2-0.7-2.9-1.6c-1.6-1.8-1.6-4.6-0.1-6.4
	C7.2,8,9.9,7.5,12,8.8C14,10,15.1,12.6,13.8,15.4z M9.5,16.4c1.9,0,3.4-1.5,3.4-3.4c0-1.9-1.5-3.4-3.4-3.4C7.6,9.6,6,11.2,6,13
	C6,14.9,7.6,16.4,9.5,16.4z"/>
<path d="M34.2,32.6c-1.3-1-2.5-1.9-3.8-2.9c-0.6-0.5-0.8-0.9-0.5-1.3c0.3-0.4,0.7-0.4,1.4,0.1c1.3,0.9,2.5,1.9,3.8,2.9
	c1.2-1.1,2.6-1.6,4.3-1.3c1.2,0.2,2.2,0.8,3,1.7c1.6,1.9,1.6,4.6,0,6.4c-1.6,1.8-4.3,2.3-6.3,1C33.9,37.9,33,35.2,34.2,32.6z
	 M35.1,34.9c0,1.9,1.5,3.4,3.4,3.5c1.9,0,3.5-1.5,3.5-3.4c0-1.9-1.5-3.4-3.4-3.4C36.7,31.5,35.1,33.1,35.1,34.9z"/>
<path d="M23.3,10.7C20,10,18.7,7.2,19.1,4.9c0.4-2.4,2.6-4.1,5-4c2.4,0.1,4.4,1.9,4.7,4.2c0.3,2.3-1,4.9-4.1,5.6c0,0.2,0,0.3,0,0.5
	c0,1.5,0,3.1,0,4.6c0,0.5-0.3,0.8-0.8,0.8c-0.4,0-0.7-0.3-0.7-0.9c0-0.1,0-0.2,0-0.3c0-1.4,0-2.8,0-4.2C23.3,11,23.3,10.8,23.3,10.7
	z M24,9.2c1.9,0,3.4-1.5,3.5-3.4c0-1.9-1.5-3.5-3.5-3.5c-1.9,0-3.4,1.5-3.4,3.4C20.6,7.7,22.1,9.2,24,9.2z"/>
<path d="M24.8,37.3c3.1,0.7,4.4,3.3,4.1,5.6c-0.3,2.3-2.4,4.2-4.7,4.2c-2.5,0.1-4.6-1.7-5-4c-0.4-2.3,0.8-5.1,4.1-5.8
	c0-0.5,0-1.1,0-1.6c0-1.1,0-2.2,0-3.2c0-0.7,0.3-1,0.7-1c0.5,0,0.8,0.4,0.8,1c0,1.5,0,2.9,0,4.4C24.8,37,24.8,37.1,24.8,37.3z
	 M24,38.8c-1.9,0-3.5,1.5-3.5,3.4c0,1.9,1.6,3.4,3.4,3.4c1.9,0,3.4-1.5,3.4-3.4C27.5,40.3,25.9,38.8,24,38.8z"/>
</svg>
