<?xml version="1.0" encoding="utf-8"?>
<!-- Generator: Adobe Illustrator 28.0.0, SVG Export Plug-In . SVG Version: 6.00 Build 0)  -->
<svg version="1.1" id="Layer_1" xmlns="http://www.w3.org/2000/svg" xmlns:xlink="http://www.w3.org/1999/xlink" x="0px" y="0px"
	 viewBox="0 0 24 24" style="enable-background:new 0 0 24 24;" xml:space="preserve">
<path d="M2.2,12.7c-0.9-1.2-0.6-3,0.9-3.8C2.9,8.5,2.8,8,2.9,7.5c0-0.5,0.3-1,0.6-1.4C3.6,5.9,3.8,5.9,3.9,6
	c0.2,0.1,0.2,0.3,0.2,0.5C4.1,6.5,4,6.6,4,6.7C3.4,7.5,3.5,8.6,4.2,9.4c0,0,0,0,0,0C4.5,9.6,4.6,9.8,4.4,10C4.2,10.2,4,10.1,3.8,9.9
	c0,0,0,0,0,0C3.4,9.6,3.4,9.6,3,9.8c-0.7,0.6-0.8,1.6-0.3,2.3c0.1,0.1,0.2,0.2,0.3,0.1c0.3-0.1,0.7-0.1,1-0.2c0.2,0,0.4,0.1,0.4,0.3
	c0,0.2-0.1,0.4-0.4,0.4c-0.6,0-1.2,0.2-1.6,0.7c-0.8,0.9-0.6,2.4,0.4,3c0-0.1,0.1-0.1,0.2-0.2c0.1-0.1,0.4-0.1,0.5,0
	c0.1,0.1,0.2,0.3,0,0.5c-0.1,0.2-0.3,0.4-0.4,0.7c-0.4,1,0.1,2.1,1.1,2.4C4.4,20,4.6,20,4.8,20c0.2,0,0.4,0.1,0.4,0.3
	c0.3,1,1.5,2,2.9,1.4c0.1,0,0.3,0,0.4,0c1.5,0.9,3.2,0.1,3.4-1.7c0.1-0.9,0-1.8,0-2.7c-0.3,0.2-0.7,0.4-1,0.5
	c-0.2,0.1-0.4,0-0.5-0.2c-0.1-0.2,0-0.4,0.2-0.5c0,0,0.1,0,0.1,0c0.8-0.3,1.2-0.9,1.2-1.8c0-1.6,0-3.3,0-4.9c0-0.8-0.4-1.5-1.2-1.8
	c-0.3-0.1-0.4-0.3-0.3-0.5c0.1-0.2,0.3-0.3,0.5-0.2c0.3,0.1,0.6,0.3,0.9,0.5c0,0,0-0.1,0-0.2c0-1.5,0-3,0-4.6c0-1.5-1.4-2.4-2.8-1.7
	C9.1,2.1,9.1,2.2,9,2.2C8.8,2.3,8.6,2.2,8.5,2C8.4,1.8,8.5,1.7,8.7,1.6c0.5-0.3,1.1-0.5,1.8-0.4c1.4,0.2,2.3,1.3,2.3,2.7
	c0,5.3,0,10.6,0,15.9c0,1.5-0.9,2.7-2.4,3.1c-0.7,0.2-1.3,0.1-2-0.2c-0.1,0-0.2,0-0.3,0c-1.4,0.4-2.8-0.2-3.4-1.6
	c-0.1-0.1-0.1-0.2-0.3-0.2c-1.6-0.2-2.6-1.8-2.1-3.3c0.1-0.2,0-0.3-0.1-0.4c-1.2-1.1-1.3-2.7-0.4-3.9C1.9,13,2,12.8,2.2,12.7z"/>
<path d="M15.3,11.3c0.4,0,0.8,0,1.2,0c0.2,0,0.3-0.1,0.5-0.2c0.5-0.4,1-0.8,1.5-1.2c0.1-0.1,0.3-0.2,0.4-0.2c0.7,0,1.3,0,2,0
	c0.1,0,0.2,0,0.3-0.2c0.2-0.5,0.8-0.7,1.3-0.5c0.5,0.1,0.8,0.6,0.8,1.1c0,0.5-0.3,1-0.8,1.1c-0.5,0.1-1-0.1-1.3-0.5
	c-0.1-0.2-0.2-0.2-0.3-0.2c-0.6,0-1.2,0-1.8,0c-0.1,0-0.2,0-0.3,0.1c-0.5,0.4-1,0.8-1.5,1.2c-0.1,0.1-0.3,0.2-0.4,0.2
	c-0.9,0-1.9,0-2.8,0c-0.1,0-0.3-0.1-0.3-0.1c-0.1-0.1-0.1-0.2-0.1-0.4c0-0.2,0.2-0.2,0.4-0.2C14.4,11.3,14.8,11.3,15.3,11.3z
	 M22.1,9.7c-0.2,0-0.4,0.2-0.4,0.4c0,0.2,0.2,0.4,0.4,0.4c0.2,0,0.4-0.2,0.4-0.4C22.5,9.9,22.3,9.7,22.1,9.7z"/>
<path d="M15.4,12.8c0.5,0,0.9,0,1.4,0c0.2,0,0.3,0.1,0.5,0.2c0.5,0.4,1,0.8,1.5,1.2c0.1,0.1,0.2,0.1,0.3,0.1c0.6,0,1.2,0,1.9,0
	c0.1,0,0.2,0,0.3-0.2c0.3-0.5,0.8-0.7,1.3-0.6c0.5,0.1,0.8,0.6,0.8,1.1c0,0.5-0.4,0.9-0.8,1.1c-0.5,0.1-1-0.1-1.3-0.6
	C21.1,15,21,15,20.9,15c-0.7,0-1.3,0-2,0c-0.2,0-0.3-0.1-0.5-0.2c-0.5-0.4-1-0.8-1.5-1.2c-0.1-0.1-0.2-0.1-0.3-0.1
	c-0.9,0-1.7,0-2.6,0c-0.1,0-0.3-0.1-0.4-0.2c-0.1-0.1-0.1-0.3,0-0.3c0.1-0.1,0.2-0.2,0.3-0.2C14.4,12.7,14.9,12.8,15.4,12.8z
	 M22.5,14.6c0-0.2-0.2-0.4-0.4-0.4c-0.2,0-0.4,0.2-0.4,0.4c0,0.2,0.2,0.4,0.4,0.4C22.3,15,22.5,14.8,22.5,14.6z"/>
<path d="M14.8,9.8c0.6,0.2,1-0.2,1.4-0.6c0.9-1,1.9-1.9,2.8-2.8c0.1-0.1,0.1-0.2,0.1-0.4c-0.1-0.5,0.1-1,0.5-1.3
	c0.4-0.3,1-0.2,1.3,0.2c0.4,0.4,0.4,0.9,0.2,1.3C21,6.6,20.5,6.8,20,6.7c-0.2,0-0.3,0-0.4,0.1c-1.2,1.2-2.3,2.3-3.5,3.5
	c-0.2,0.2-0.3,0.2-0.6,0.2c-0.5,0-1.1,0-1.6,0c-0.3,0-0.5-0.1-0.5-0.4c0-0.2,0.2-0.4,0.5-0.4C14.2,9.8,14.5,9.8,14.8,9.8z M20.3,5.2
	c-0.2,0-0.4,0.2-0.4,0.4C19.9,5.8,20,6,20.3,6c0.2,0,0.4-0.2,0.4-0.4C20.6,5.4,20.5,5.2,20.3,5.2z"/>
<path d="M14.8,14.3c0.8-0.2,1.3,0.2,1.8,0.8c0.9,1,1.9,2,2.9,2.9c0.1,0.1,0.2,0.2,0.4,0.1c0.5-0.1,1,0.1,1.2,0.5
	c0.3,0.4,0.2,1-0.2,1.3c-0.4,0.4-0.9,0.4-1.3,0.2c-0.4-0.3-0.7-0.7-0.5-1.2c0-0.2,0-0.3-0.1-0.4c-1.1-1.1-2.2-2.2-3.3-3.3
	C15.6,15,15.5,15,15.4,15c-0.5,0-1,0-1.4,0c-0.3,0-0.4-0.1-0.4-0.4c0-0.2,0.2-0.4,0.5-0.4C14.2,14.3,14.5,14.3,14.8,14.3z
	 M20.6,19.1c0-0.2-0.2-0.4-0.4-0.4c-0.2,0-0.4,0.2-0.4,0.4c0,0.2,0.2,0.4,0.4,0.4C20.4,19.5,20.6,19.3,20.6,19.1z"/>
<path d="M15.8,5.5c0-0.5,0-1.1,0-1.6c0-0.1,0-0.2-0.2-0.3c-0.5-0.3-0.7-0.8-0.6-1.3c0.1-0.5,0.6-0.8,1.1-0.8c0.5,0,0.9,0.4,1.1,0.8
	c0.1,0.5-0.1,1-0.6,1.3c-0.1,0.1-0.1,0.2-0.1,0.3c0,1.2,0,2.3,0,3.5c0,0.2-0.1,0.4-0.2,0.5c-0.3,0.3-0.6,0.6-1,0.9
	C15.2,8.9,15,9,14.9,9c-0.3,0-0.6,0-1,0c-0.3,0-0.4-0.1-0.4-0.4c0-0.2,0.2-0.4,0.4-0.4c0.8,0.2,1.3-0.3,1.7-0.9
	c0-0.1,0.1-0.2,0.1-0.2C15.8,6.6,15.8,6.1,15.8,5.5z M16.1,3c0.2,0,0.4-0.2,0.4-0.4c0-0.2-0.2-0.4-0.4-0.4c-0.2,0-0.4,0.2-0.4,0.4
	C15.7,2.8,15.9,3,16.1,3z"/>
<path d="M16.5,18.7c0,0.5,0,0.9,0,1.4c0,0.1,0,0.2,0.2,0.3c0.5,0.2,0.7,0.8,0.5,1.3c-0.1,0.5-0.6,0.8-1.1,0.8c-0.5,0-1-0.4-1.1-0.9
	c-0.1-0.5,0.1-1,0.5-1.2c0.2-0.1,0.2-0.2,0.2-0.3c0-0.8,0-1.7,0-2.5c0-0.1-0.1-0.2-0.1-0.3c0,0-0.1-0.1-0.1-0.1
	c-0.4-0.5-0.9-0.8-1.6-0.7c-0.3,0-0.4-0.1-0.4-0.4c0-0.2,0.2-0.4,0.5-0.4c0.3,0,0.6,0,1,0c0.1,0,0.3,0.1,0.4,0.2
	c0.3,0.3,0.7,0.7,1,1c0.1,0.1,0.2,0.3,0.2,0.4C16.5,17.8,16.5,18.3,16.5,18.7z M16.1,21.8c0.2,0,0.4-0.2,0.4-0.4
	c0-0.2-0.2-0.4-0.4-0.4c-0.2,0-0.4,0.2-0.4,0.4C15.7,21.6,15.9,21.8,16.1,21.8z"/>
<path d="M5.5,5.6c0,0.1,0,0.3,0.1,0.5c0.1,0.2,0,0.4-0.3,0.5C5.1,6.6,5,6.5,4.9,6.3C4.5,4.9,5.2,3,7.2,2.9c0.3,0,0.6,0,0.8,0.1
	c0.3,0,0.4,0.2,0.4,0.5C8.3,3.6,8.1,3.7,7.8,3.6C6.8,3.4,5.8,4,5.6,5C5.6,5.1,5.5,5.3,5.5,5.6z"/>
</svg>
