<?xml version="1.0" encoding="utf-8"?>
<!-- Generator: Adobe Illustrator 28.0.0, SVG Export Plug-In . SVG Version: 6.00 Build 0)  -->
<svg version="1.1" id="Layer_1" xmlns="http://www.w3.org/2000/svg" xmlns:xlink="http://www.w3.org/1999/xlink" x="0px" y="0px"
	 viewBox="0 0 282.9 384" style="enable-background:new 0 0 282.9 384;" xml:space="preserve">
<path d="M282.8,143.1c0-12.7-4.3-23.2-13.4-32.2c-30.8-30.5-61.4-61.2-91.9-92c-8.6-8.7-17.5-16.7-30.1-18.9H3.4
	C0.5,2.1,0,5.1,0,8.5c0.1,53.2,0,106.4,0,159.6h0v44.7h0c0,54.2,0,108.4,0,162.6c0,3.4,0.5,6.4,3.4,8.5h276c2.8-2.2,3.4-5.1,3.4-8.5
	C282.8,298,282.8,220.5,282.8,143.1z M181.9,41.1c19.8,19.8,40.1,40.1,60,60h-60V41.1z M271.5,368.5c0,1.3-0.1,2.6-0.2,4h-260v-5
	c0-51.6,0-103.1,0-154.7v-44.7c0-50.6,0-101.1,0-151.7v-5c1.5-0.1,2.5-0.2,3.6-0.2c42.1,0,84.2,0,126.4,0c1.6,0,3.3,0,4.9,0.3
	c14.7,2.4,24,13.7,24.1,29.3c0.1,20,0,40,0,60c0,11.4,0.3,11.7,11.5,11.7H241c18.8,0,30.5,11.5,30.5,30.3
	C271.6,218,271.5,293.3,271.5,368.5z"/>
</svg>
