<?xml version="1.0" encoding="utf-8"?>
<!-- Generator: Adobe Illustrator 28.0.0, SVG Export Plug-In . SVG Version: 6.00 Build 0)  -->
<svg version="1.1" id="Layer_1" xmlns="http://www.w3.org/2000/svg" xmlns:xlink="http://www.w3.org/1999/xlink" x="0px" y="0px"
	 viewBox="0 0 356.6 384" style="enable-background:new 0 0 356.6 384;" xml:space="preserve">
<path d="M318.6,0c8.1,3.1,10.8,9.1,10.7,17.6c-0.3,25.2-0.1,50.5-0.1,75.7c0,9.4-3,13.6-12,16.6c-26,8.7-52.1,17.4-78.1,26
	c-8.1,2.7-15,0.1-18.1-6.5c-3.7-7.8,0-16.2,8.6-19.2c11.9-4.1,23.9-8,35.8-12c7.9-2.6,15.8-5.3,24.1-8.1
	c-7.6-8.4-15.6-15.4-24.5-21.5c-28.4-19.7-59.9-29-94.3-27.2C135.5,43.3,104.5,56,78,79.6c-26.7,23.8-42.7,53.7-48.7,88.9
	c-1.3,7.7-1.3,15.7-1.9,23.5c-0.4,5.9-3,10.3-8.5,12.6c-5.1,2.1-10.1,1.3-14.3-2.4c-3.3-2.9-4.7-6.7-4.6-11
	c1-51.7,20.1-95.5,58-130.8c26-24.1,56.7-39.1,91.7-44.3c55.5-8.3,104.6,6.2,147,43.1c1.2,1.1,2.4,2.2,3.6,3.3
	c0.2,0.2,0.4,0.2,1.2,0.6c0.1-1.5,0.2-2.7,0.2-4c0-14,0.3-28-0.1-42c-0.2-8.4,2.8-14.2,10.9-17.1C314.6,0,316.6,0,318.6,0z"/>
<path d="M38.1,384c-8.1-3.1-10.8-9.1-10.7-17.6c0.3-25.2,0.1-50.5,0.1-75.7c0-9.4,3-13.6,12-16.6c26-8.7,52.1-17.4,78.1-26
	c8.1-2.7,15-0.1,18.1,6.5c3.7,7.8,0,16.2-8.6,19.2c-11.9,4.1-23.9,8-35.8,12c-7.9,2.6-15.8,5.3-24.1,8.1
	c7.5,8.3,15.5,15.2,24.2,21.3c28.4,19.9,60,29.2,94.6,27.4c35.2-1.8,66.3-14.6,92.7-38.2c26.7-23.8,42.7-53.7,48.7-88.9
	c1.3-7.7,1.3-15.7,1.9-23.5c0.4-5.9,3-10.3,8.5-12.6c5.1-2.1,10.1-1.3,14.3,2.4c3.3,2.9,4.7,6.7,4.6,11c-1,51.7-20.1,95.5-58,130.8
	c-26,24.1-56.7,39.1-91.7,44.3c-55.5,8.3-104.6-6.2-147-43.1c-1.4-1.2-2.8-2.5-4.8-4.3c-0.1,1.9-0.2,3.2-0.2,4.4
	c0,13.9-0.3,27.8,0.1,41.6c0.2,8.5-2.6,14.5-10.9,17.5C42.1,384,40.1,384,38.1,384z"/>
</svg>
