<?xml version="1.0" encoding="UTF-8"?>
<svg id="Layer_1" data-name="Layer 1" xmlns="http://www.w3.org/2000/svg" viewBox="0 0 271.91 271.85">
  <defs>
    <style>
      .cls-1 {
        stroke-width: 0px;
      }
    </style>
  </defs>
  <path class="cls-1" d="m182.86,171.94c2.58,2.41,5.11,4.65,7.49,7.02,25.74,25.7,51.45,51.42,77.17,77.14,4.96,4.96,5.74,9.68,2.24,13.34-3.62,3.78-8.52,3.06-13.6-2.02-27.04-27.04-54.09-54.09-81.11-81.16-1.05-1.05-1.86-2.36-2.86-3.65-26.07,21.15-55.01,29.4-87.4,23.44-26.55-4.88-48.04-18.53-64.21-40.14C-11.27,123.38-5.55,63.44,33.59,27.43c39.27-36.12,99.57-36.6,139.41-1.26,40.66,36.07,48.16,99.74,9.85,145.77Zm9.12-70.43c-2.09-49.98-42.52-87.44-92.29-85.5C51.72,17.88,14.16,59.3,16.06,108.24c1.83,47.11,43.48,85.69,90.35,83.69,49.16-2.1,87.56-42.67,85.56-90.41Z"/>
</svg>