<?xml version="1.0" encoding="utf-8"?>
<!-- Generator: Adobe Illustrator 28.0.0, SVG Export Plug-In . SVG Version: 6.00 Build 0)  -->
<svg version="1.1" id="Layer_1" xmlns="http://www.w3.org/2000/svg" xmlns:xlink="http://www.w3.org/1999/xlink" x="0px" y="0px"
	 viewBox="0 0 216.1 216.1" style="enable-background:new 0 0 216.1 216.1;" xml:space="preserve">
<path d="M108,0c5.6,0,11.3,0,16.9,0c4.9,0,7.1,2.2,7.2,7.1c0.1,3.9-0.1,7.8,0.1,11.6c0.1,1.1,1.1,2.6,2.1,3.1
	c5.3,2.4,10.7,4.7,16.2,6.8c1,0.4,2.7,0.1,3.4-0.5c3-2.6,5.7-5.6,8.6-8.4c3.5-3.4,6.4-3.5,9.8-0.2c8.2,8.1,16.3,16.2,24.4,24.4
	c3.2,3.2,3.1,6.2-0.1,9.5c-2.7,2.8-5.4,5.6-8.2,8.2c-1.5,1.4-1.7,2.5-0.8,4.5c2.3,5,4.5,10,6.3,15.2c0.8,2.3,1.9,2.8,4,2.7
	c3.9-0.1,7.8-0.1,11.6,0c4.2,0.1,6.5,2.3,6.6,6.5c0.1,11.6,0.1,23.3,0,34.9c0,4.2-2.3,6.5-6.5,6.6c-4,0.1-8,0.1-12,0
	c-1.8,0-2.8,0.3-3.5,2.3c-2,5.4-4.4,10.6-6.4,15.9c-0.4,1.1-0.1,2.9,0.6,3.7c2.5,2.9,5.4,5.5,8.1,8.3c3.5,3.6,3.6,6.6,0.1,10.1
	c-8,8.1-16,16.1-24.1,24.1c-3.4,3.3-6.3,3.3-9.8-0.1c-2.8-2.7-5.6-5.4-8.2-8.2c-1.3-1.4-2.4-1.6-4.2-0.8c-5.1,2.4-10.2,4.6-15.5,6.5
	c-2.1,0.8-2.6,1.7-2.6,3.7c0.1,3.9,0.1,7.8,0,11.6c-0.1,4.4-2.3,6.7-6.7,6.8c-11.5,0.1-23,0.1-34.5,0c-4.4,0-6.7-2.3-6.8-6.7
	c-0.1-4-0.1-8,0-12c0.1-2-0.7-2.7-2.5-3.4c-5.2-2-10.4-4.1-15.5-6.4c-1.8-0.8-2.9-0.7-4.2,0.7c-2.6,2.8-5.4,5.5-8.2,8.2
	c-3.5,3.4-6.4,3.4-9.8,0.1c-8.1-8-16.1-16-24.1-24.1c-3.5-3.5-3.4-6.4,0.1-10.1c2.6-2.7,5.2-5.4,8-7.9c1.5-1.4,1.7-2.6,0.8-4.5
	c-2.3-5-4.5-10-6.3-15.2c-0.8-2.3-1.9-2.8-4-2.7c-3.9,0.1-7.8,0.1-11.6,0c-4.2-0.1-6.5-2.3-6.5-6.5C0,113.9,0,102.3,0.1,90.6
	c0-4.2,2.3-6.5,6.5-6.6c4.1-0.1,8.3,0.1,12.4-0.1c1.1-0.1,2.5-1.2,3-2.3c2.4-5.2,4.6-10.5,6.6-15.9c0.4-1.1,0.1-2.9-0.6-3.7
	c-2.5-2.9-5.4-5.5-8.1-8.3c-3.5-3.6-3.6-6.5-0.2-10.1c8-8.1,16-16.1,24.1-24.1c3.4-3.3,6.3-3.3,9.8,0.1c2.8,2.7,5.6,5.4,8.2,8.2
	c1.3,1.4,2.3,1.6,4.2,0.8c5.1-2.4,10.3-4.5,15.5-6.4c2.1-0.7,2.6-1.7,2.6-3.8c-0.1-3.9-0.1-7.8,0-11.6c0.1-4.5,2.3-6.7,6.7-6.8
	C96.5,0,102.3,0,108,0z M32,166.6c6.1,6.2,11.6,11.6,17.5,17.6c2.5-2.7,5.3-5.8,8.2-8.7c3.3-3.3,5.2-3.1,9.4-1.2
	c7.7,3.5,15.5,6.7,23.4,9.7c4,1.5,5.6,3,5.6,7.3c0,4.2,0,8.4,0,12.7c8.2,0,16,0,24,0c0-4.2,0-8.2,0-12.2c0-4.8,1.5-6.2,5.9-7.8
	c7.7-2.8,15.3-5.9,22.7-9.4c4.8-2.2,6.4-2.4,10.2,1.5c2.8,2.8,5.5,5.7,7.9,8.3c6-6,11.4-11.4,17.6-17.6c-2.9-2.6-6-5.3-8.9-8.1
	c-3.5-3.4-3.3-5.2-1.2-9.7c3.4-7.4,6.6-15,9.4-22.7c1.7-4.6,3-6.1,8-6.1c4.1,0,8.1,0,12.1,0c0-8.3,0-16,0-24c-4.3,0-8.4,0-12.5,0
	c-4.5,0-6-1.6-7.5-5.8c-2.9-7.8-6.1-15.5-9.5-23.1c-2-4.4-2.2-6.2,1.3-9.7c2.9-2.9,6.1-5.5,8.5-7.7c-6.2-6.3-11.7-11.8-17.5-17.7
	c-2.4,2.6-5,5.4-7.7,8.2c-3.8,3.8-5.5,3.6-10.3,1.4c-7.3-3.4-14.8-6.5-22.4-9.3c-4.7-1.7-6.2-3-6.2-7.9c0-4.1,0-8.1,0-12.2
	c-8.3,0-16,0-24,0c0,4.3,0,8.4,0,12.5c0,4.5-1.6,6-5.7,7.6c-7.8,2.9-15.5,6-23.1,9.5c-4.5,2.1-6.3,2.3-9.9-1.4
	c-2.8-2.8-5.4-5.9-7.7-8.4C43.5,38.1,38,43.6,32.1,49.5c2.6,2.4,5.5,5.1,8.4,7.9c3.5,3.5,3.4,5.3,1.4,9.7
	c-3.5,7.7-6.7,15.5-9.7,23.4c-1.5,3.9-3,5.5-7.3,5.5c-4.2,0-8.4,0-12.5,0c0,8.3,0,16.1,0,24c4.4,0,8.5,0,12.6,0
	c4.2,0,5.8,1.7,7.3,5.6c3,7.9,6.2,15.7,9.7,23.4c1.9,4.2,2,6.1-1.3,9.4C37.7,161.4,34.7,164.1,32,166.6z"/>
<path d="M168.1,108.1c0,33.1-27.1,60-60.3,59.9C74.8,168,48,141,48,108c0-33.1,27.1-60,60.3-59.9C141.2,48.1,168.1,75.1,168.1,108.1
	z M156,107.8C156,81.5,134.3,60,107.9,60c-26.4,0-47.9,21.7-47.9,48c0,26.5,21.7,48.1,48.3,48C134.7,156,156.1,134.3,156,107.8z"/>
</svg>
